<?xml version="1.0" standalone="no"?>
<!DOCTYPE svg PUBLIC "-//W3C//DTD SVG 20010904//EN"
 "http://www.w3.org/TR/2001/REC-SVG-20010904/DTD/svg10.dtd">
<svg version="1.0" xmlns="http://www.w3.org/2000/svg"
 width="152.000000pt" height="152.000000pt" viewBox="0 0 152.000000 152.000000"
 preserveAspectRatio="xMidYMid meet">
<metadata>
Created by potrace 1.11, written by Peter Selinger 2001-2013
</metadata>
<g transform="translate(0.000000,152.000000) scale(0.100000,-0.100000)"
fill="#000000" stroke="none">
<path d="M678 1509 c-223 -25 -368 -149 -399 -340 -9 -58 -6 -145 7 -187 17
-53 62 -127 101 -167 56 -58 113 -94 288 -183 84 -43 154 -85 175 -107 31 -32
35 -42 35 -90 0 -43 -5 -58 -24 -79 -73 -77 -271 -66 -505 29 -49 19 -91 33
-94 31 -4 -4 -6 -253 -3 -292 2 -18 159 -79 271 -105 59 -13 302 -18 360 -7
258 50 397 224 367 458 -11 89 -48 160 -120 231 -83 82 -144 122 -324 213 -87
44 -154 84 -157 94 -22 74 -1 143 54 175 68 40 199 32 359 -24 46 -16 88 -26
91 -22 4 5 15 28 25 53 10 25 28 69 41 98 30 66 30 78 -1 86 -15 4 -22 11 -19
20 6 16 -30 34 -141 69 -149 47 -259 60 -387 46z"/>
</g>
</svg>
